#!OML:ASF E:\Steps\Project 1\Capture day 1\Session 2\Subject.ASF
:FULLY-SPECIFIED
:DEGREES
330
root -1.03489 17.9611 20.821 -154.162 -5.63294 177.704
lowerback -27.9533 -0.360596 -7.88797
upperback -0.94947 1.5799 -0.449239
thorax 13.5626 0.0155755 4.34798
lowerneck -2.83586 -0.115463 -0.80683
upperneck 22.4746 -2.45882 3.20652
head 7.39005 -1.61338 0.926397
rclavicle -7.95139e-015 3.97569e-016
rhumerus -38.0914 -28.959 -72.251
rradius 17.3646
rwrist 15.83
rhand -12.4698 -58.6802
rfingers 7.12502
rthumb 13.6042 631.784
lclavicle -7.95139e-015 3.97569e-016
lhumerus -28.341 0.249064 85.7141
lradius 17.9928
lwrist -5.3369
lhand -21.1078 -11.5447
lfingers 7.12502
lthumb 5.27025 18.3698
rfemur -22.7274 3.24164 20.1406
rtibia 5.89302
rfoot -17.989 -1.7912
rtoes -13.5787
lfemur -23.9504 -6.95487 -23.1971
ltibia 6.88759
lfoot -5.70846 -5.46933
ltoes -32.1421
331
root -1.03713 17.9629 20.833 -154.129 -5.37193 177.764
lowerback -27.8598 -0.382205 -7.84478
upperback -0.957588 1.52728 -0.432933
thorax 13.5175 -0.00321511 4.32236
lowerneck -3.07187 -0.349439 -0.90079
upperneck 23.2392 -2.91522 3.15382
head 7.6972 -1.87364 0.882592
rclavicle 8.17502e-015 -6.75868e-015
rhumerus -38.183 -28.8956 -72.2748
rradius 17.5187
rwrist 15.367
rhand -12.441 -58.9686
rfingers 7.12502
rthumb 13.632 631.498
lclavicle 8.17502e-015 -6.75868e-015
lhumerus -28.5443 0.297793 85.6883
lradius 18.1227
lwrist -5.38405
lhand -21.0235 -11.5509
lfingers 7.12502
lthumb 5.35166 18.3615
rfemur -22.9431 3.42507 20.1197
rtibia 6.05405
rfoot -17.9712 -1.78375
rtoes -14.1089
lfemur -24.0644 -6.91366 -23.1413
ltibia 6.95811
lfoot -5.85539 -5.26146
ltoes -32.8023
332
root -1.04004 17.9641 20.8417 -154.12 -5.15429 177.799
lowerback -27.771 -0.414269 -7.80621
upperback -0.931762 1.47007 -0.421226
thorax 13.5142 -0.0251571 4.29376
lowerneck -3.2776 -0.51153 -0.911118
upperneck 23.7417 -3.19321 2.95379
head 7.90641 -2.04162 0.789804
rclavicle -2.12451e-014 -3.57812e-015
rhumerus -38.1708 -28.801 -72.3696
rradius 17.581
rwrist 15.0348
rhand -12.5037 -58.4795
rfingers 7.12502
rthumb 13.5716 631.983
lclavicle -2.12451e-014 -3.57812e-015
lhumerus -28.6586 0.367832 85.6645
lradius 18.1845
lwrist -5.52219
lhand -21.1794 -11.3961
lfingers 7.12502
lthumb 5.20109 18.5201
rfemur -23.0316 3.4181 20.109
rtibia 6.03345
rfoot -17.839 -1.52669
rtoes -13.9503
lfemur -24.1155 -6.87134 -23.1302
ltibia 6.97764
lfoot -5.94929 -5.04271
ltoes -33.3825
333
root -1.04286 17.9654 20.8475 -154.085 -4.93497 177.756
lowerback -27.7571 -0.482926 -7.85169
upperback -0.894958 1.3981 -0.417354
thorax 13.5573 -0.0620092 4.29707
lowerneck -3.5405 -0.629435 -0.983148
upperneck 24.3788 -3.4333 2.78333
head 8.17313 -2.1993 0.716036
rclavicle 2.49972e-014 1.39149e-015
rhumerus -38.0784 -28.6389 -72.4899
rradius 17.6229
rwrist 14.6845
rhand -12.0596 -58.09
rfingers 7.12502
rthumb 13.9995 632.401
lclavicle 2.49972e-014 1.39149e-015
lhumerus -28.8015 0.187705 85.7427
lradius 18.2894
lwrist -5.44884
lhand -21.5282 -11.3537
lfingers 7.12502
lthumb 4.86431 18.5704
rfemur -23.1446 3.27995 20.04
rtibia 6.03991
rfoot -17.765 -1.2038
rtoes -13.9597
lfemur -24.1283 -6.85324 -23.2198
ltibia 6.89307
lfoot -5.92947 -4.84169
ltoes -33.889
334
root -1.04661 17.9638 20.8517 -154.027 -4.70475 177.725
lowerback -27.949 -0.574068 -7.88588
upperback -0.752919 1.32282 -0.386175
thorax 13.8195 -0.109605 4.32655
lowerneck -3.43725 -0.819046 -1.12606
upperneck 24.5187 -3.73502 2.74906
head 8.21037 -2.37366 0.703095
rclavicle 1.11816e-014 2.24627e-014
rhumerus -37.8066 -28.4634 -72.6913
rradius 17.8216
rwrist 14.2819
rhand -11.37 -58.6035
rfingers 7.12502
rthumb 14.6641 631.935
lclavicle 1.11816e-014 2.24627e-014
lhumerus -28.7427 0.273798 85.7639
lradius 18.3332
lwrist -5.45618
lhand -21.5788 -11.4245
lfingers 7.12502
lthumb 4.81546 18.5008
rfemur -23.2441 3.30856 19.9618
rtibia 5.99926
rfoot -17.7758 -1.14994
rtoes -14.8538
lfemur -24.1295 -6.86108 -23.3049
ltibia 6.74697
lfoot -5.77813 -4.69546
ltoes -33.6548
335
root -1.04998 17.9606 20.8557 -153.946 -4.51497 177.78
lowerback -28.2348 -0.661866 -7.82465
upperback -0.572344 1.2334 -0.341592
thorax 14.1765 -0.161526 4.31489
lowerneck -3.43346 -0.986376 -1.32555
upperneck 24.6581 -3.99895 2.762
head 8.26702 -2.52578 0.717449
rclavicle 4.47266e-015 2.78299e-015
rhumerus -37.4838 -28.3569 -72.92
rradius 18.0638
rwrist 13.7519
rhand -11.1096 -59.0774
rfingers 7.12502
rthumb 14.9149 631.48
lclavicle 4.47266e-015 2.78299e-015
lhumerus -28.5414 0.61511 85.6811
lradius 18.274
lwrist -5.56569
lhand -21.4286 -11.508
lfingers 7.12502
lthumb 4.96053 18.414
rfemur -23.3156 3.30794 19.9966
rtibia 5.86307
rfoot -17.6728 -1.06311
rtoes -15.6688
lfemur -24.2081 -6.88047 -23.2676
ltibia 6.721
lfoot -5.73398 -4.52986
ltoes -33.0167
336
root -1.0513 17.9598 20.8625 -153.851 -4.31056 177.843
lowerback -28.3148 -0.684367 -7.77402
upperback -0.53415 1.19766 -0.334789
thorax 14.2646 -0.178537 4.28266
lowerneck -3.34614 -0.85218 -1.20156
upperneck 24.7573 -3.80089 2.5292
head 8.27347 -2.45176 0.634322
rclavicle 9.54166e-015 1.23246e-014
rhumerus -37.4162 -28.3706 -72.9688
rradius 18.1832
rwrist 13.3133
rhand -11.1635 -59.0008
rfingers 7.12502
rthumb 14.863 631.552
lclavicle 9.54166e-015 1.23246e-014
lhumerus -28.4519 0.865586 85.6025
lradius 18.2133
lwrist -5.56912
lhand -21.205 -11.2079
lfingers 7.12502
lthumb 5.17645 18.7089
rfemur -23.4754 3.38765 20.013
rtibia 5.84709
rfoot -17.4982 -0.98766
rtoes -15.8141
lfemur -24.3749 -6.90277 -23.1884
ltibia 6.82237
lfoot -5.86776 -4.25198
ltoes -33.1786
337
root -1.05303 17.9615 20.8716 -153.778 -4.04262 177.883
lowerback -28.2787 -0.665432 -7.75794
upperback -0.54182 1.21423 -0.350119
thorax 14.2374 -0.168807 4.26303
lowerneck -3.58213 -1.01194 -1.30351
upperneck 25.3488 -4.14909 2.56438
head 8.53039 -2.64662 0.621965
rclavicle 2.37051e-014 4.77083e-015
rhumerus -37.4343 -28.2593 -73.0591
rradius 18.3297
rwrist 12.9687
rhand -10.9604 -59.0544
rfingers 7.12502
rthumb 15.0587 631.513
lclavicle 2.37051e-014 4.77083e-015
lhumerus -28.4569 1.0424 85.5257
lradius 18.2145
lwrist -5.58395
lhand -21.0049 -10.9627
lfingers 7.12502
lthumb 5.36959 18.9492
rfemur -23.7044 3.62483 19.9482
rtibia 5.96654
rfoot -17.4315 -0.954533
rtoes -15.635
lfemur -24.4998 -6.89288 -23.1516
ltibia 6.846
lfoot -5.9135 -3.9533
ltoes -34.0012
